# xmcd
#
# Track frame offsets:
# 150
# 14300
# 30290
# 47575
#
# Disc length: 817 seconds
#
#
# Revision: 0
# Processed by: cddbd v1.5.1PL0 Copyright (c) Steve Scherf et al.
# Submitted via: FreeRIP 2.91 
#
DISCID=20032f04
DTITLE=The Rankin Family - Single
DYEAR=1995
DGENRE=Country
TTITLE0=Grey Dusk of Eve
TTITLE1=Sir James Baird
TTITLE2=Chi Mi Na Morbheanna
TTITLE3=Johnny Tulloch
EXTD=
EXTT0=
EXTT1=
EXTT2=
EXTT3=
PLAYORDER=
